<svg width="158" height="44" viewBox="0 0 158 44" fill="none" xmlns="http://www.w3.org/2000/svg">
<g id="Group 148">
<path id="Vector" d="M14.6455 17.0482V25.2552L21.9682 20.5296V12.0743L14.6455 17.0482Z" fill="#E62C58"/>
<g id="Group">
<path id="Vector_2" d="M17.0438 30.8265C17.0572 28.2793 19.2882 26.1877 21.9816 26.1942C21.9789 26.1942 21.9749 26.1942 21.9722 26.1942C19.2721 26.1799 17.033 28.2754 17.0196 30.8265C17.0062 33.4272 19.1968 35.5384 21.9332 35.5528C21.9386 35.5528 21.9453 35.5528 21.9507 35.5528C19.2157 35.5345 17.0303 33.4259 17.0424 30.8265H17.0438Z" fill="#E62C58"/>
<path id="Vector_3" d="M29.1302 29.1096C28.7862 27.5991 27.9529 26.3679 26.7043 25.39C25.3254 24.3103 23.718 23.8128 21.9386 23.7906C21.4708 23.7906 21.0085 23.8285 20.5502 23.9094C19.3514 24.1223 18.2628 24.5714 17.3031 25.2868C16.0882 26.1929 15.2845 27.3562 14.8947 28.7702C14.5789 29.9139 14.5802 31.0693 14.8033 32.2274C14.9969 33.2366 15.3369 34.2028 15.7737 35.1389C16.3704 36.4184 17.1163 37.6182 17.9348 38.7815C18.588 39.7111 19.307 40.5937 20.0247 41.4788C20.3123 41.8327 20.6053 42.1826 20.9803 42.4594C21.7652 43.0377 22.5743 42.9072 23.136 42.287C23.9397 41.4005 24.691 40.4722 25.4074 39.5192C26.3777 38.2266 27.2688 36.8897 27.9771 35.4496C28.6034 34.1793 29.0791 32.8658 29.2391 31.4623C29.3291 30.6737 29.3076 29.8878 29.1302 29.1096ZM21.9506 35.5528C21.9506 35.5528 21.9386 35.5528 21.9332 35.5528C19.1955 35.5384 17.0061 33.4272 17.0196 30.8265C17.033 28.2754 19.2721 26.1799 21.9722 26.1942C21.9748 26.1942 21.9789 26.1942 21.9816 26.1942C21.9869 26.1942 21.991 26.1942 21.9963 26.1942C24.7596 26.1903 27 28.3589 26.9409 30.9766C26.8844 33.4651 24.7233 35.5684 21.9574 35.5541C21.9547 35.5541 21.9533 35.5541 21.9506 35.5541V35.5528Z" fill="#8C162C"/>
<path id="Vector_4" d="M21.9949 26.1943C21.9949 26.1943 21.9855 26.1943 21.9801 26.1943C24.7393 26.1943 26.9744 28.3616 26.9152 30.9754C26.8588 33.4586 24.7071 35.558 21.9492 35.5515C21.9519 35.5515 21.9532 35.5515 21.9559 35.5515C24.7219 35.5672 26.883 33.4625 26.9394 30.9741C26.9986 28.3564 24.7581 26.1891 21.9949 26.193V26.1943Z" fill="#E62C58"/>
<path id="Vector_5" d="M26.6695 25.39C25.3484 24.3547 23.8135 23.8599 22.1201 23.8011V26.2021C24.8094 26.2804 26.9638 28.4099 26.9061 30.9767C26.8509 33.4051 24.7906 35.4614 22.1201 35.5449V42.8197C22.4857 42.7779 22.823 42.5925 23.0999 42.287C23.9036 41.4005 24.6549 40.4723 25.3712 39.5192C26.3416 38.2266 27.2326 36.8897 27.9409 35.4496C28.5672 34.1793 29.043 32.8659 29.2029 31.4623C29.293 30.6738 29.2715 29.8878 29.0941 29.1097C28.75 27.5991 27.9167 26.3679 26.6682 25.39H26.6695Z" fill="#E62C58"/>
</g>
<g id="Group_2">
<path id="Vector_6" d="M9.8819 27.782V0.35788L0 7.32364V34.8858L9.8819 27.782Z" fill="#E62C58"/>
<path id="Vector_7" d="M0 36.8293V36.838L9.8819 43.6421V29.7255L0 36.8293Z" fill="#E62C58"/>
</g>
<path id="Vector_8" d="M29.2905 17.0482V25.2552L21.9678 20.5296V12.0743L29.2905 17.0482Z" fill="#8C162C"/>
<g id="Group_3">
<path id="Vector_9" d="M32.5898 27.782V0.35788L42.4717 7.32364V34.8858L32.5898 27.782Z" fill="#8C162C"/>
<path id="Vector_10" d="M42.4717 36.8293V36.838L32.5898 43.6421V29.7255L42.4717 36.8293Z" fill="#8C162C"/>
</g>
<path id="Vector (Stroke)" fill-rule="evenodd" clip-rule="evenodd" d="M52.7236 9.14517H58.2071L58.2622 26.7047L58.2616 26.7067C58.2953 28.5672 58.7396 29.9999 59.5059 31.0935L59.5088 31.0976C60.2321 32.1376 61.2167 32.6814 62.6187 32.7365C64.0525 32.7599 65.1035 32.2851 65.9223 31.3376C66.7595 30.3642 67.2551 28.9839 67.2551 27.0398V9.24939H72.7431V26.5247C72.7431 28.8343 73.2623 30.369 74.0877 31.3494C74.8963 32.3115 75.9715 32.8076 77.4782 32.7847C78.7384 32.7284 79.8059 32.2646 80.7435 31.3477C81.6532 30.4582 82.0951 29.4112 82.0951 28.122V9.24939H87.5832V27.8114C87.5832 30.5183 86.571 32.8622 84.6025 34.7615C82.7431 36.5557 80.6184 37.6232 78.2482 37.8574C78.0775 37.8995 77.8934 37.9258 77.6989 37.9258H77.4328C75.5466 37.9624 73.8119 37.5237 72.2743 36.5755C71.4321 36.0553 70.6845 35.4493 70.0412 34.7578C69.4419 35.3925 68.7512 35.9586 67.976 36.4568C66.5173 37.3955 64.911 37.8737 63.1934 37.8737H62.5778L62.5258 37.87C59.3115 37.6412 56.7257 36.4513 55.0477 34.1256L55.0489 34.1272L56.2354 33.2687L55.0477 34.1256C53.4872 31.9683 52.7236 29.4642 52.7236 26.677V9.14517Z" fill="#981736"/>
<path id="Vector_11" d="M103.603 11.4676C104.899 11.4676 106.042 11.6139 107.032 11.9065C108.021 12.1992 108.957 12.8084 109.846 13.7343C109.947 13.8385 110.041 13.9327 110.126 14.0169C110.212 14.1031 110.288 14.1973 110.357 14.3015C110.937 14.9889 111.363 15.7084 111.636 16.464C111.911 17.2196 112.046 18.0954 112.046 19.0914V36.7039H98.4865C96.2342 36.6698 94.3424 35.768 92.805 34.0003C91.2716 32.2327 90.5029 30.1984 90.5029 27.8977V27.589C90.6065 25.0818 91.6042 23.0657 93.496 21.5385C95.3899 20.0113 97.682 19.2457 100.378 19.2457H109.591C109.591 18.388 109.453 17.6424 109.18 17.0051C108.906 16.3698 108.48 15.7786 107.9 15.2294C107.83 15.1613 107.765 15.1012 107.695 15.0491C107.627 14.999 107.577 14.9549 107.544 14.9208C107.064 14.5781 106.598 14.3195 106.136 14.1472C105.676 13.9768 105.154 13.8907 104.574 13.8907H92.7532V11.4696H103.603V11.4676ZM99.765 21.769C97.9548 21.769 96.3517 22.3782 94.9518 23.5968C93.5538 24.8173 92.8548 26.3364 92.8548 28.1562C92.8548 29.976 93.4263 31.5292 94.5714 32.7136C95.7145 33.8981 97.5307 34.4893 100.02 34.4893H109.641V21.8211L99.765 21.771V21.769Z" fill="#E41741"/>
<path id="Vector (Stroke)_2" fill-rule="evenodd" clip-rule="evenodd" d="M102.139 9.14718H91.2894V14.4973H104.575C105.009 14.4973 105.355 14.5618 105.626 14.6621C105.922 14.7726 106.25 14.9462 106.62 15.203C106.681 15.257 106.747 15.3105 106.817 15.363C106.818 15.364 106.821 15.3664 106.826 15.3704C106.836 15.3797 106.852 15.3943 106.877 15.4187L106.885 15.4267L106.893 15.4346C107.35 15.8672 107.651 16.2988 107.836 16.7262C107.863 16.7891 107.888 16.8547 107.912 16.9233H100.379C97.3854 16.9233 94.7592 17.7811 92.5774 19.5405C90.3459 21.3419 89.1606 23.7575 89.0403 26.6707L89.0391 26.7009V27.0398C89.0391 29.7006 89.9399 32.0738 91.6994 34.1021L91.7006 34.1035C93.4979 36.17 95.7771 37.2697 98.4651 37.3104L98.4761 37.3105H113.511V18.2335C113.511 17.1091 113.359 16.0577 113.014 15.1071C112.683 14.1919 112.179 13.3432 111.525 12.5564C111.421 12.4084 111.303 12.2643 111.166 12.1267L111.154 12.1146C111.078 12.0401 110.993 11.9548 110.899 11.8581C109.879 10.7961 108.734 10.0244 107.448 9.64417C106.294 9.30305 105.006 9.14517 103.603 9.14517H102.139V9.14718ZM99.6327 22.377C98.2417 22.4053 97.0204 22.8807 95.9146 23.843C94.8285 24.7917 94.32 25.9116 94.32 27.2983C94.32 28.7946 94.7808 29.9645 95.625 30.8378C96.3777 31.6177 97.7265 32.1669 100.021 32.1669H108.177V22.4203L99.6327 22.377Z" fill="#981736"/>
<path id="Vector (Stroke)_3" fill-rule="evenodd" clip-rule="evenodd" d="M117.164 36.9193H118.629H122.437V19.6296C122.437 18.6597 122.576 17.8409 122.827 17.1507C123.039 16.5688 123.445 16.0017 124.124 15.4569L124.169 15.4213L124.21 15.3824C124.592 15.0239 124.989 14.7973 125.413 14.671C125.916 14.5205 126.493 14.4374 127.152 14.4374H131.81V9.14517H126.938C125.537 9.14517 124.215 9.36919 122.989 9.83011M117.164 36.9193H117.166V18.3426C117.166 16.9959 117.438 15.7313 118.011 14.5766C118.525 13.5417 119.135 12.6294 119.852 11.8649L119.853 11.8633C120.701 10.9614 121.759 10.2924 122.989 9.83011" fill="#981736"/>
<path id="Vector_12" d="M147.558 11.4676C148.854 11.4676 149.997 11.6139 150.987 11.9065C151.975 12.1992 152.913 12.8084 153.801 13.7343C153.902 13.8385 153.996 13.9327 154.082 14.0169C154.167 14.1031 154.243 14.1973 154.313 14.3015C154.892 14.9889 155.318 15.7084 155.591 16.464C155.866 17.2196 156.001 18.0954 156.001 19.0914V36.7039H142.442C140.189 36.6698 138.298 35.768 136.762 34.0003C135.227 32.2327 134.456 30.1984 134.456 27.8977V27.589C134.56 25.0818 135.557 23.0657 137.449 21.5385C139.343 20.0113 141.635 19.2457 144.332 19.2457H153.544C153.544 18.388 153.406 17.6424 153.134 17.0051C152.859 16.3698 152.433 15.7786 151.853 15.2294C151.783 15.1613 151.718 15.1012 151.648 15.0491C151.58 14.999 151.529 14.9549 151.497 14.9208C151.017 14.5781 150.551 14.3195 150.089 14.1472C149.629 13.9768 149.107 13.8907 148.527 13.8907H136.706V11.4696H147.556L147.558 11.4676ZM143.718 21.769C141.91 21.769 140.307 22.3782 138.907 23.5968C137.509 24.8173 136.81 26.3364 136.81 28.1562C136.81 29.976 137.381 31.5292 138.527 32.7136C139.67 33.8981 141.486 34.4893 143.975 34.4893H153.596V21.8211L143.718 21.771V21.769Z" fill="#E41741"/>
<path id="Vector (Stroke)_4" fill-rule="evenodd" clip-rule="evenodd" d="M146.948 9.14517H147.557C148.96 9.14517 150.248 9.30305 151.402 9.64417C152.685 10.0242 153.833 10.7954 154.853 11.8581C154.947 11.9547 155.032 12.04 155.108 12.1146L155.12 12.1266C155.257 12.2642 155.375 12.4084 155.48 12.5564C156.133 13.3433 156.637 14.1919 156.968 15.1071C157.313 16.0577 157.466 17.1091 157.466 18.2335V37.3105H142.43L142.419 37.3104C139.731 37.2697 137.452 36.1701 135.656 34.1028C133.895 32.0749 132.991 29.7015 132.991 27.0398V26.7009L132.992 26.6707C133.113 23.7575 134.297 21.3423 136.529 19.541C138.711 17.7816 141.338 16.9233 144.331 16.9233H151.864C151.84 16.8547 151.815 16.7889 151.788 16.726C151.603 16.2987 151.302 15.8672 150.845 15.4346L150.837 15.4267L150.829 15.4187C150.804 15.3943 150.788 15.3797 150.778 15.3704C150.773 15.3664 150.771 15.3641 150.769 15.363C150.712 15.3201 150.641 15.2651 150.568 15.2004C150.2 14.945 149.873 14.7722 149.578 14.6621C149.307 14.5618 148.962 14.4973 148.527 14.4973H135.242V9.14718H146.946L146.948 9.14517ZM143.585 22.377C142.196 22.4053 140.975 22.8806 139.869 23.8429C138.783 24.7916 138.274 25.9116 138.274 27.2983C138.274 28.7946 138.735 29.9645 139.579 30.8378C140.332 31.6177 141.681 32.1669 143.975 32.1669H152.131V22.4203L143.585 22.377Z" fill="#981736"/>
</g>
</svg>
